<?xml version="1.0" encoding="UTF-8" standalone="no"?>
<!-- Created with Inkscape (http://www.inkscape.org/) -->

<svg
   width="1800"
   height="700"
   viewBox="0 0 476.24999 185.20832"
   version="1.1"
   id="svg5"
   inkscape:version="1.4.2 (f4327f4, 2025-05-13)"
   sodipodi:docname="IsotipoFilomenav2-Para-la-pagina.svg"
   xmlns:inkscape="http://www.inkscape.org/namespaces/inkscape"
   xmlns:sodipodi="http://sodipodi.sourceforge.net/DTD/sodipodi-0.dtd"
   xmlns:xlink="http://www.w3.org/1999/xlink"
   xmlns="http://www.w3.org/2000/svg"
   xmlns:svg="http://www.w3.org/2000/svg">
  <sodipodi:namedview
     id="namedview7"
     pagecolor="#ffffff"
     bordercolor="#666666"
     borderopacity="1.0"
     inkscape:pageshadow="2"
     inkscape:pageopacity="0.0"
     inkscape:pagecheckerboard="0"
     inkscape:document-units="mm"
     showgrid="false"
     inkscape:zoom="0.25"
     inkscape:cx="1014"
     inkscape:cy="734"
     inkscape:window-width="1360"
     inkscape:window-height="705"
     inkscape:window-x="-8"
     inkscape:window-y="-8"
     inkscape:window-maximized="1"
     inkscape:current-layer="layer1"
     units="mm"
     showguides="true"
     inkscape:guide-bbox="true"
     inkscape:showpageshadow="2"
     inkscape:deskcolor="#d1d1d1">
    <sodipodi:guide
       position="80.43333,-51.858342"
       orientation="0,-1"
       id="guide43229"
       inkscape:locked="false" />
    <sodipodi:guide
       position="447.67498,8.4666776"
       orientation="0,-1"
       id="guide43233"
       inkscape:locked="false" />
    <sodipodi:guide
       position="700.57627,-214.26129"
       orientation="1,0"
       id="guide80217"
       inkscape:locked="false" />
    <sodipodi:guide
       position="123.97878,5.1730076"
       orientation="1,0"
       id="guide80219"
       inkscape:locked="false" />
    <sodipodi:guide
       position="411.69165,4.2333277"
       orientation="1,0"
       id="guide125095"
       inkscape:locked="false" />
    <sodipodi:guide
       position="160.86667,-269.87497"
       orientation="0,-1"
       id="guide127813"
       inkscape:locked="false" />
  </sodipodi:namedview>
  <defs
     id="defs2">
    <rect
       x="6.1292763"
       y="6.1293459"
       width="2641.7183"
       height="747.77161"
       id="rect101389" />
    <rect
       x="625.18616"
       y="1323.9237"
       width="1703.9387"
       height="557.76416"
       id="rect47923" />
    <rect
       x="808.30084"
       y="186.36427"
       width="301.21667"
       height="69.344849"
       id="rect41953" />
    <rect
       x="21.670263"
       y="184.53447"
       width="294.71558"
       height="121.01626"
       id="rect39359" />
    <rect
       x="214.53561"
       y="543.92365"
       width="3047.4207"
       height="781.26489"
       id="rect5793" />
    <radialGradient
       fy="578.08801"
       fx="158.429"
       gradientTransform="matrix(0,-0.8606248,0.80066704,0,-289.63719,547.42792)"
       gradientUnits="userSpaceOnUse"
       xlink:href="#a"
       r="65"
       cy="578.08801"
       cx="158.429"
       id="c" />
    <linearGradient
       id="a">
      <stop
         stop-color="#fd5"
         offset="0"
         id="stop127458" />
      <stop
         stop-color="#fd5"
         offset=".1"
         id="stop127460" />
      <stop
         stop-color="#ff543e"
         offset=".5"
         id="stop127462" />
      <stop
         stop-color="#c837ab"
         offset="1"
         id="stop127464" />
    </linearGradient>
    <radialGradient
       fy="473.45499"
       fx="147.694"
       gradientTransform="matrix(0.07552906,0.37721974,-1.5553062,0.31141731,873.97553,151.19913)"
       gradientUnits="userSpaceOnUse"
       xlink:href="#b"
       r="65"
       cy="473.45499"
       cx="147.694"
       id="d" />
    <linearGradient
       id="b">
      <stop
         stop-color="#3771c8"
         offset="0"
         id="stop127451" />
      <stop
         offset=".128"
         stop-color="#3771c8"
         id="stop127453" />
      <stop
         stop-opacity="0"
         stop-color="#60f"
         offset="1"
         id="stop127455" />
    </linearGradient>
    <linearGradient
       gradientUnits="userSpaceOnUse"
       y2="51.900002"
       y1="11.536"
       x2="28.836"
       x1="46.136002"
       id="a-8">
      <stop
         offset="0"
         stop-color="#37aee2"
         id="stop128602" />
      <stop
         offset="1"
         stop-color="#1e96c8"
         id="stop128604" />
    </linearGradient>
    <linearGradient
       x1="0"
       y1="0"
       x2="1"
       y2="0"
       gradientUnits="userSpaceOnUse"
       gradientTransform="matrix(0,-46.239253,46.239253,0,238.80386,460.01934)"
       spreadMethod="pad"
       id="a-7">
      <stop
         offset="0"
         stop-color="#25cf43"
         id="stop128735" />
      <stop
         offset="1"
         stop-color="#61fd7d"
         id="stop128737" />
    </linearGradient>
  </defs>
  <g
     inkscape:label="Capa 1"
     inkscape:groupmode="layer"
     id="layer1">
    <text
       xml:space="preserve"
       style="font-style:normal;font-weight:normal;font-size:10.5833px;line-height:1.25;font-family:sans-serif;fill:#000000;fill-opacity:1;stroke:none;stroke-width:0.264583"
       x="184.04826"
       y="33.828186"
       id="text19587"><tspan
         sodipodi:role="line"
         id="tspan19585"
         style="stroke-width:0.264583"
         x="184.04826"
         y="33.828186" /><tspan
         sodipodi:role="line"
         style="stroke-width:0.264583"
         id="tspan19589"
         x="184.04826"
         y="47.057312" /></text>
    <text
       xml:space="preserve"
       transform="scale(0.26458333)"
       id="text47921"
       style="font-style:normal;font-weight:normal;font-size:64px;line-height:1.25;font-family:sans-serif;white-space:pre;shape-inside:url(#rect47923);display:inline;fill:#000000;fill-opacity:1;stroke:none" />
    <text
       xml:space="preserve"
       style="font-style:normal;font-weight:normal;font-size:10.5833px;line-height:1.25;font-family:sans-serif;fill:#000000;fill-opacity:1;stroke:none;stroke-width:0.264583"
       x="181.63089"
       y="384.34393"
       id="text52109"><tspan
         sodipodi:role="line"
         id="tspan52107"
         style="stroke-width:0.264583"
         x="181.63089"
         y="384.34393" /></text>
    <g
       id="g57778"
       style="font-size:96px;line-height:1.25;font-family:'Tatoo Sailor';-inkscape-font-specification:'Tatoo Sailor';white-space:pre;shape-inside:url(#rect3422);fill:#780078;fill-opacity:1"
       transform="matrix(0.89597305,0,0,0.89597312,38.2824,-97.723096)"
       inkscape:export-filename="IsotipoFiloPagina.svg"
       inkscape:export-xdpi="96"
       inkscape:export-ydpi="96">
      <path
         d="m 73.203125,152.92397 h 50.015625 l 6.04687,17.15625 -4.07812,1.54687 c -1.71875,-4 -3.40625,-6.875 -5.0625,-8.625 -1.65625,-1.75 -3.57812,-3 -5.76562,-3.75 -2.1875,-0.75 -5.625,-1.125 -10.3125,-1.125 H 89.9375 v 25.125 h 1.868479 c 4.382188,0.14134 7.456947,0.073 11.846461,0.073 l -0.17455,4.57828 c -6.817908,0 -6.18947,-0.0375 -11.515922,-0.0576 H 89.9375 v 20.34375 c 0,1.875 0.1875,3.1875 0.5625,3.9375 0.40625,0.71875 0.984375,1.28125 1.734375,1.6875 0.78125,0.375 2.15625,0.5625 4.125,0.5625 h 1.734375 v 3.9375 H 73.203125 v -3.9375 h 1.59375 c 2,0 3.375,-0.1875 4.125,-0.5625 0.78125,-0.375 1.34375,-0.95312 1.6875,-1.73437 0.375,-0.8125 0.5625,-2.26563 0.5625,-4.35938 V 163.2364 c 0,-1.9375 -0.171875,-3.29688 -0.515625,-4.07813 -0.34375,-0.78125 -0.875,-1.34375 -1.59375,-1.6875 -0.6875,-0.375 -1.90625,-0.5625 -3.65625,-0.5625 h -2.203125 z"
         style="font-family:'Bookman Old Style';-inkscape-font-specification:'Bookman Old Style';fill:#780078;fill-opacity:1"
         id="path16312"
         sodipodi:nodetypes="ccccssscccccccsccsccccsccssscscc" />
      <path
         d="M 101.34375,183.32512 H 126.375 v 4.33162 h -1.92188 c -1.81961,0 -3.125,0.27179 -3.9375,0.81537 -0.8125,0.54358 -1.40625,1.32496 -1.78125,2.34417 -0.375,0.98523 -0.64315,1.79797 -0.62698,4.68567 l 0.0645,11.51971 c 0.0122,2.17847 0.20313,3.73227 0.60938,4.66134 0.40625,0.89702 0.96875,1.55378 1.6875,1.97026 0.75,0.41647 2.07812,0.62471 3.98437,0.62471 h 1.92188 v 4.03662 h -25.03125 v -4.03662 h 2.0625 c 1.84375,0 3.14062,-0.20824 3.89062,-0.62471 0.78125,-0.44852 1.34375,-1.07324 1.6875,-1.87415 0.34375,-0.83296 0.51563,-2.41877 0.51563,-4.75745 V 195.5556 c 0,-2.61597 -0.17188,-4.36561 -0.51563,-5.24892 -0.34375,-0.91729 -0.90625,-1.57977 -1.6875,-1.98745 -0.75,-0.44166 -1.45953,-0.0859 -3.82226,-0.38906 l -2.13086,-0.27343 z"
         style="font-family:'Bookman Old Style';-inkscape-font-specification:'Bookman Old Style';fill:#780078;fill-opacity:1;stroke-width:1.01251"
         id="path16314"
         sodipodi:nodetypes="cccsscssccsccccsccssccscc" />
      <path
         d="m 132.95115,152.92396 h 25.35938 v 3.98437 h -2.34375 c -1.8125,0 -3.09375,0.17188 -3.84375,0.51563 -0.75,0.34375 -1.29688,0.84375 -1.64063,1.5 -0.34375,0.65625 -0.51562,1.82812 -0.51562,3.51562 v 45.60938 c 0,2.09375 0.0781,3.34375 0.23437,3.75 0.1875,0.5625 0.59375,0.96875 1.21875,1.21875 0.4375,0.1875 1.70313,0.28125 3.79688,0.28125 h 3.51562 c 14.37748,-0.50791 21.28125,0.68557 21.28125,-17.01172 l 4,0.17582 v 21.85152 h -51.0625 v -3.9375 h 2.0625 c 2,0 3.34375,-0.17187 4.03125,-0.51562 0.6875,-0.34375 1.21875,-0.90625 1.59375,-1.6875 0.375,-0.8125 0.5625,-2.1875 0.5625,-4.125 v -44.48438 c 0,-2.25 -0.17187,-3.75 -0.51562,-4.5 -0.34375,-0.78125 -0.84375,-1.32812 -1.5,-1.64062 -0.65625,-0.34375 -2.04688,-0.51563 -4.17188,-0.51563 h -2.0625 z"
         style="font-family:'Bookman Old Style';-inkscape-font-specification:'Bookman Old Style';fill:#780078;fill-opacity:1"
         id="path16316"
         sodipodi:nodetypes="cccsssssccsccccccsscssccscc" />
      <path
         d="m 201.86895,152.92396 h 20.67187 l 19.3125,51.79687 18.79688,-51.79687 h 19.96875 v 3.98437 h -1.6875 q -3.04688,0 -4.125,0.51563 -1.03125,0.51562 -1.64063,1.82812 -0.60937,1.26563 -0.60937,4.21875 v 43.125 q 0,4.07813 0.46875,5.29688 0.51562,1.21875 1.64062,1.875 1.17188,0.60937 4.26563,0.60937 h 1.6875 v 3.9375 h -24.98438 v -3.9375 h 1.78125 q 2.39063,0 3.46875,-0.375 1.125,-0.375 1.82813,-1.21875 0.75,-0.89062 0.84375,-1.82812 0.23437,-1.92188 0.23437,-3 v -48.14063 l -21.32812,58.5 h -4.64063 l -21.51562,-57.65625 v 46.35938 q 0,3.51562 0.60937,4.78125 0.60938,1.21875 1.875,1.92187 1.3125,0.65625 4.64063,0.65625 h 1.5 v 3.9375 h -23.0625 v -3.9375 h 1.3125 q 3.32812,0 4.73437,-0.70312 1.45313,-0.70313 2.0625,-1.96875 0.60938,-1.3125 0.60938,-5.10938 v -42.70312 q 0,-3.5625 -0.51563,-4.6875 -0.51562,-1.17188 -1.73437,-1.73438 -1.17188,-0.5625 -4.21875,-0.5625 h -2.25 z"
         style="font-family:'Bookman Old Style';-inkscape-font-specification:'Bookman Old Style';fill:#780078;fill-opacity:1"
         id="path16320" />
      <path
         d="m 260.6502,152.92396 h 47.125 c -1.6328,11.45781 -5.90762,10.31418 -5.64044,18.47657 -0.91464,-7.12762 2.35249,-11.01151 -5.28144,-12.71095 -1.71875,-0.375 -4.84375,-0.5625 -9.375,-0.5625 h -15.84375 v 23.95313 h 7.875 c 2.90625,0 5.09375,-0.48438 6.5625,-1.45313 1.5,-1 2.53125,-2.23437 3.09375,-3.70312 0.4375,-1.09375 0.65625,-3 0.65625,-5.71875 v -1.07813 h 4.59375 v 28.6875 h -4.59375 v -2.48437 c 0,-2.1875 -0.17187,-3.76563 -0.51562,-4.73438 -0.3125,-0.96875 -0.90625,-1.875 -1.78125,-2.71875 -0.875,-0.875 -1.82813,-1.46875 -2.85938,-1.78125 -1,-0.3125 -2.71875,-0.46875 -5.15625,-0.46875 h -7.875 v 21.28125 c 0,2.21875 0.0937,3.57813 0.28125,4.07813 0.21875,0.46875 0.5625,0.8125 1.03125,1.03125 0.46875,0.21875 1.75,0.32812 3.84375,0.32812 h 9.79688 c 5.46875,0 9.73437,-0.65625 12.79687,-1.96875 2.48301,-4.27944 1.79097,-12.67198 2.48301,-14.50001 0,7.23535 5.90762,11.59672 5.90762,21.43748 l -53.15625,3e-5 v -3.9375 h 1.875 c 2.1875,0 3.54687,-0.14062 4.07812,-0.42187 0.8125,-0.40625 1.4375,-1.0625 1.875,-1.96875 0.3125,-0.625 0.46875,-1.98438 0.46875,-4.07813 v -45 c 0,-2.03125 -0.20312,-3.39062 -0.60937,-4.07812 -0.40625,-0.6875 -1.10938,-1.21875 -2.10938,-1.59375 -0.53125,-0.21875 3.18748,0 0,0 z"
         style="font-family:'Bookman Old Style';-inkscape-font-specification:'Bookman Old Style';fill:#780078;fill-opacity:1"
         id="path16322"
         sodipodi:nodetypes="ccccsccsccsccccscccscscssscccccsccsssccc" />
      <path
         d="m 293.19326,152.92396 h 20.0625 l 29.76563,49.03125 v -37.3125 c 0,-2.21875 -0.21875,-3.8125 -0.65625,-4.78125 -0.4375,-0.96875 -1.09375,-1.70313 -1.96875,-2.20313 -0.875,-0.5 -2.17188,-0.75 -3.89063,-0.75 h -1.6875 v -3.98437 h 33.89063 v 3.98437 h -1.17188 c -1.9375,0 -17.57014,-0.32711 -18.25764,-0.0146 -0.82799,3.6176 -0.60823,5.3944 -0.58611,7.74899 v 53.67187 h -5.67187 l -35.85938,-58.92187 v 46.6875 c 0,2.59375 0.0781,4.17187 0.23438,4.73437 0.21875,0.71875 0.60937,1.375 1.17187,1.96875 0.59375,0.59375 1.28125,1 2.0625,1.21875 0.78125,0.21875 2.35938,0.34375 4.73438,0.375 v 3.9375 h -22.17188 v -3.9375 h 1.17188 c 2.25,0 3.76562,-0.21875 4.54687,-0.65625 0.8125,-0.4375 1.4375,-1.1875 1.875,-2.25 0.4375,-1.0625 0.65625,-2.85937 0.65625,-5.39062 v -41.4375 c 0,-2.59375 -0.0625,-4.17188 -0.1875,-4.73438 -0.28125,-1.0625 -0.82812,-1.82812 -1.64062,-2.29687 -0.78125,-0.46875 -2.35938,-0.70313 -4.73438,-0.70313 h -1.6875 z"
         style="font-family:'Bookman Old Style';-inkscape-font-specification:'Bookman Old Style';fill:#780078;fill-opacity:1"
         id="path16324"
         sodipodi:nodetypes="cccssssccccscccccsccsccccscsssccscc" />
      <path
         d="m 347.69397,152.92396 h 8.12106 l 29.19074,54.65625 c 1,2.75 2,4.57812 3,5.48437 1.03125,0.875 2.40625,1.3125 4.125,1.3125 h 1.03125 v 3.9375 h -23.29688 v -3.9375 c 0.75,-0.0625 1.48438,-0.0937 2.20313,-0.0937 1.5,0 2.48437,-0.15625 2.95312,-0.46875 0.90625,-0.59375 1.35938,-1.34375 1.35938,-2.25 0,-0.65625 -0.4375,-2.26562 -1.3125,-4.82812 l -6.3125,-12.65625 c 0,0 -11.008,-20.83929 -21.0618,-41.1563 z"
         style="font-family:'Bookman Old Style';-inkscape-font-specification:'Bookman Old Style';fill:#780078;fill-opacity:1"
         id="path16326"
         sodipodi:nodetypes="ccccsccccscsccc" />
      <rect
         style="fill:#780078;fill-opacity:1;stroke:none;stroke-width:2.93567;stroke-linecap:round;paint-order:markers fill stroke"
         id="rect23060"
         width="28.228334"
         height="4.640274"
         x="343.46289"
         y="183.32512" />
      <text
         xml:space="preserve"
         style="font-size:96px;line-height:1.25;font-family:'Tatoo Sailor';-inkscape-font-specification:'Tatoo Sailor';fill:#780078;fill-opacity:1"
         x="154.21497"
         y="195.77644"
         id="text25252"><tspan
           sodipodi:role="line"
           id="tspan25250"
           x="154.21497"
           y="195.77644"
           style="font-style:normal;font-variant:normal;font-weight:normal;font-stretch:normal;font-size:96px;font-family:'Bookman Old Style';-inkscape-font-specification:'Bookman Old Style';fill:#780078;fill-opacity:1">o</tspan></text>
      <ellipse
         style="fill:#780078;fill-opacity:1;stroke:none;stroke-width:4.73589;stroke-linecap:round;paint-order:markers fill stroke"
         id="path54192"
         cx="114.56796"
         cy="175.47523"
         rx="5.3499098"
         ry="4.9314704" />
    </g>
    <g
       aria-label="Arte   Diseño"
       id="text58464"
       style="font-size:64px;line-height:1.25;font-family:'Tatoo Sailor';-inkscape-font-specification:'Tatoo Sailor';white-space:pre;shape-inside:url(#rect3422);fill:#55d400;fill-opacity:1"
       transform="matrix(0.27161823,0,0,0.26458333,177.94611,22.388866)">
      <g
         id="g135817"
         transform="matrix(4.7649414,0,0,4.7649414,-918.80829,-1462.115)"
         style="fill:#55d400;fill-opacity:1">
        <g
           aria-label="y"
           transform="matrix(1.8373285,-0.03672733,0.05170462,1.305109,-193.06575,-124.81617)"
           id="text75628"
           style="font-size:21.3333px;line-height:1.25;font-family:'Tatoo Sailor';-inkscape-font-specification:'Tatoo Sailor';white-space:pre;shape-inside:url(#rect3422);fill:#55d400;fill-opacity:1">
          <path
             d="m 225.92777,406.55221 -0.17067,0.62578 c -0.0379,0.17067 -0.0853,0.34133 -0.14222,0.512 -0.0379,0.17067 -0.0759,0.29393 -0.11378,0.36978 -0.0379,0.11377 -0.0569,0.18962 -0.0569,0.22755 -0.0189,0.0379 -0.0284,0.0664 -0.0284,0.0853 0.0189,0.0189 0.0569,0.0284 0.11378,0.0284 h 0.14222 c 0.0569,0.0189 0.11375,0.0284 0.17066,0.0284 0.37926,0.0379 0.66371,0.0853 0.85334,0.14223 0.20859,0.0759 0.38873,0.18962 0.54044,0.34133 0.22755,0.18963 0.35081,0.4077 0.36978,0.65422 0.0379,0.13274 0.0379,0.27496 0,0.42667 -0.0948,0.28444 -0.16119,0.33185 -0.19911,0.14222 -0.0759,-0.30341 -0.37926,-0.52148 -0.91022,-0.65422 -0.13275,-0.0379 -0.35082,-0.0759 -0.65423,-0.11378 -0.28444,-0.0379 -0.51199,-0.0569 -0.68266,-0.0569 h -0.14222 l -0.31289,0.62578 c -0.47407,0.94815 -1.01452,1.64977 -1.62133,2.10488 -0.15171,0.11378 -0.33186,0.22756 -0.54045,0.34134 -0.22755,0.11377 -0.41718,0.18962 -0.56888,0.22755 -0.32237,0.0948 -0.62578,0.12325 -0.91023,0.0853 -0.30341,-0.0379 -0.53096,-0.21808 -0.68266,-0.54044 -0.0379,-0.1517 -0.0379,-0.3034 0,-0.45511 0.0759,-0.36029 0.22756,-0.70163 0.45511,-1.024 0.20859,-0.30341 0.46459,-0.57837 0.768,-0.82489 0.28444,-0.24651 0.60681,-0.46459 0.96711,-0.65422 0.36029,-0.18963 0.71111,-0.34133 1.05244,-0.45511 l 0.28444,-0.0853 0.11378,-0.36978 c 0.0379,-0.11377 0.0759,-0.25599 0.11378,-0.42666 0.0379,-0.17067 0.0759,-0.32237 0.11378,-0.45511 0.0379,-0.15171 0.0853,-0.34134 0.14222,-0.56889 0.0569,-0.24652 0.10427,-0.47408 0.14222,-0.68267 0.0569,-0.20859 0.10427,-0.4077 0.14222,-0.59733 0.0569,-0.20859 0.0948,-0.35082 0.11378,-0.42667 0.019,-0.0759 0.019,-0.12325 0,-0.14222 -0.0189,-0.0189 -0.0379,-0.0284 -0.0569,-0.0284 l -0.0284,0.0284 0.0853,-0.0569 c 0.0948,-0.0569 0.12325,-0.0189 0.0853,0.11378 -0.0379,0.11378 -0.1043,0.26548 -0.19911,0.45511 -0.0948,0.18963 -0.19911,0.38874 -0.31288,0.59733 -0.11378,0.18963 -0.18963,0.32237 -0.22756,0.39822 -0.20859,0.32237 -0.39822,0.54993 -0.56889,0.68267 -0.1517,0.13274 -0.32237,0.18015 -0.512,0.14222 -0.39822,-0.0569 -0.70163,-0.30338 -0.91022,-0.73955 -0.0379,-0.0948 -0.0664,-0.18015 -0.0853,-0.256 -0.0189,-0.0948 -0.0284,-0.26548 -0.0284,-0.512 -0.0189,-0.56889 0.0569,-1.20415 0.22756,-1.90578 0.17067,-0.70163 0.47407,-1.5834 0.91022,-2.64532 0.11378,-0.26549 0.18963,-0.43615 0.22756,-0.512 0.0569,-0.0948 0.10427,-0.14223 0.14222,-0.14223 0.0569,-0.0189 0.18012,0.0285 0.36977,0.14223 0.20859,0.11377 0.3603,0.21807 0.45512,0.31288 0.18963,0.22756 0.23703,0.47408 0.14222,0.73956 -0.0379,0.0759 -0.0759,0.16119 -0.11378,0.256 -0.0379,0.0948 -0.0759,0.18015 -0.11378,0.256 -0.20859,0.39822 -0.39822,0.87229 -0.56889,1.42222 -0.17067,0.53096 -0.31289,1.04296 -0.42666,1.536 -0.0948,0.47407 -0.1517,0.88177 -0.17067,1.2231 -0.0189,0.32237 0.0285,0.48356 0.14222,0.48356 0.0379,0 0.11379,-0.0474 0.22756,-0.14222 0.13274,-0.0948 0.24652,-0.21807 0.34133,-0.36978 0.11378,-0.13274 0.23704,-0.34133 0.36978,-0.62578 0.1517,-0.28444 0.3034,-0.58785 0.45511,-0.91022 0.1517,-0.34133 0.29392,-0.67318 0.42667,-0.99555 0.13274,-0.34133 0.23703,-0.6163 0.31288,-0.82489 0.0758,-0.22755 0.16119,-0.46459 0.256,-0.71111 0.11378,-0.26548 0.21808,-0.50252 0.31289,-0.71111 0.0948,-0.22755 0.18015,-0.41718 0.256,-0.56889 0.0759,-0.1517 0.12326,-0.22755 0.14222,-0.22755 0.0189,0 0.0474,0.009 0.0853,0.0284 0.0379,0.019 0.0664,0.038 0.0853,0.0569 0.0189,0.019 0.0474,0.038 0.0853,0.0569 0.11378,0.0948 0.22756,0.20859 0.34134,0.34133 0.13274,0.11378 0.22755,0.23704 0.28444,0.36978 0.0379,0.0948 0.0474,0.19911 0.0284,0.31289 -0.0189,0.0948 -0.0948,0.30341 -0.22755,0.62578 -0.0948,0.26548 -0.19911,0.58785 -0.31289,0.9671 -0.11378,0.3603 -0.21808,0.69215 -0.31289,0.99556 -0.0379,0.13274 -0.0759,0.27496 -0.11378,0.42666 -0.0189,0.13275 -0.0474,0.35082 -0.0853,0.65423 -0.13512,0.2608 -0.13709,0.45302 -0.28441,0.82504 z m -2.33243,2.92977 -0.17067,0.0284 c -0.20859,0.0379 -0.44563,0.11379 -0.71111,0.22756 -0.26548,0.13274 -0.52148,0.30341 -0.768,0.512 -0.24652,0.20859 -0.46459,0.44562 -0.65422,0.71111 -0.20859,0.28444 -0.35082,0.57836 -0.42667,0.88177 -0.0379,0.20859 0.009,0.36978 0.14223,0.48356 0.13274,0.11377 0.33185,0.11377 0.59733,0 0.43615,-0.18963 0.83437,-0.56889 1.19466,-1.13778 0.0759,-0.11378 0.18015,-0.31289 0.31289,-0.59733 0.13274,-0.28445 0.256,-0.55941 0.36978,-0.82489 z"
             style="font-family:'White Chick';-inkscape-font-specification:'White Chick';fill:#55d400;fill-opacity:1"
             id="path95177"
             sodipodi:nodetypes="ccccccscccccccccscsscccccccscccsccccssccccscccccccsccccccsccccsccccccccsssscccccccccccccsccsccscc" />
          <circle
             id="path96057"
             style="fill:#55d400;fill-opacity:1;stroke:#000000"
             cx="228.65649"
             cy="384.1019"
             r="8.603387e-06"
             transform="rotate(1.6119463)" />
          <circle
             id="path96059"
             style="fill:#55d400;fill-opacity:1;stroke:#000000"
             cx="228.65649"
             cy="384.1019"
             r="8.603387e-06"
             transform="rotate(1.6119463)" />
        </g>
        <path
           d="m 188.68339,378.75078 c 0.0569,0.28444 0.0284,0.59733 -0.0853,0.93866 -0.11378,0.34133 -0.42667,1.25156 -0.93867,2.73067 -0.79644,2.048 -1.59288,4.12444 -2.38933,6.22933 -0.73955,2.10489 -1.42222,4.03912 -2.048,5.80267 -0.56889,1.76355 -1.05244,3.21422 -1.45067,4.352 -0.34133,1.08089 -0.48355,1.64978 -0.42666,1.70667 0,0.0569 0.0853,0.11375 0.256,0.17066 0.22755,0.0569 58.48355,0.11376 58.768,0.17067 0.79644,0.28445 -0.83378,0.45511 -0.89067,0.512 0,0.0569 -56.42667,0.0853 -57.28,0.0853 l -1.19467,0.0853 c -0.34133,0.96711 -0.79644,2.30399 -1.36533,4.01066 -0.56889,1.70667 -1.08089,3.52711 -1.536,5.46134 -0.45511,1.87733 -0.768,3.75467 -0.93867,5.632 -0.11377,1.87733 0.0853,3.44178 0.59734,4.69333 0.11377,0.45511 0.31288,0.85334 0.59733,1.19467 0.34133,0.34133 0.65422,0.56889 0.93867,0.68266 0.28444,0.0569 0.39822,0.1422 0.34133,0.256 0,0.11378 -0.14222,0.17067 -0.42667,0.17067 -2.78755,0 -4.75022,-1.45067 -5.888,-4.352 -0.512,-1.25155 -0.68267,-2.78755 -0.512,-4.608 0.22756,-1.82045 0.54045,-3.584 0.93867,-5.29067 0.45511,-1.76355 0.91022,-3.35644 1.36533,-4.77866 0.512,-1.47911 0.82489,-2.53156 0.93867,-3.15734 0,-0.11377 -0.48356,-0.17066 -1.45067,-0.17066 -0.96711,-0.0569 -2.13333,-0.0569 -3.49866,0 l -2.13334,0.0853 -0.59733,1.19467 c -0.22755,0.45511 -0.56889,1.08088 -1.024,1.87733 -0.39822,0.79645 -0.82489,1.62134 -1.28,2.47467 -0.45511,0.85333 -0.91022,1.67822 -1.36533,2.47466 -0.39823,0.73956 -0.68267,1.28001 -0.85334,1.62134 -1.536,2.73067 -3.15733,5.03467 -4.864,6.912 -1.70667,1.93422 -3.52711,3.49866 -5.46133,4.69333 -2.78755,1.64978 -5.71733,2.13334 -8.78933,1.45067 -0.79645,-0.17067 -1.56445,-0.39822 -2.304,-0.68267 -0.68267,-0.22755 -1.25156,-0.48355 -1.70667,-0.768 -0.79645,-0.45511 -1.50756,-1.13778 -2.13333,-2.048 -0.62578,-0.85333 -1.08089,-1.792 -1.36534,-2.816 -0.45511,-1.30845 -0.54044,-2.64534 -0.256,-4.01067 0.28445,-1.36533 0.768,-2.67378 1.45067,-3.92533 0.68267,-1.30845 1.50756,-2.50311 2.47467,-3.584 1.024,-1.08089 2.048,-1.99111 3.072,-2.73067 1.99111,-1.30844 4.26666,-2.30399 6.82666,-2.98666 2.61689,-0.73956 5.74578,-1.25156 9.38667,-1.536 h 2.048 c 0.85333,-0.0569 1.67822,-0.0569 2.47467,0 0.79644,0 1.47911,0.0284 2.048,0.0853 0.62577,0 1.02399,0.0284 1.19466,0.0853 1.87733,-3.072 3.81156,-6.37155 5.80267,-9.89866 1.99111,-3.52711 4.29511,-7.02578 6.912,-10.496 l 0.0853,-0.17067 c -2.84444,1.64978 -5.77422,3.18578 -8.78933,4.608 -3.01511,1.42222 -6.20089,2.70222 -9.55733,3.84 -1.42223,0.28445 -2.64534,0.36978 -3.66934,0.256 -1.024,-0.11378 -1.87733,-0.48356 -2.56,-1.10933 -0.68267,-0.62578 -1.13778,-1.28 -1.36533,-1.96267 -0.17067,-0.512 -0.256,-1.08089 -0.256,-1.70667 0.0569,-0.68267 0.19909,-1.16622 0.42667,-1.45066 0.28444,-0.17067 0.42666,-0.11378 0.42666,0.17066 0.34133,0.512 0.85333,0.88178 1.536,1.10934 0.45511,0.11377 1.33689,0.19911 2.64534,0.256 1.30844,0.0569 2.55999,0.0284 3.75466,-0.0853 0.91023,-0.11377 1.79201,-0.25599 2.64534,-0.42666 0.85333,-0.17067 1.76355,-0.39822 2.73066,-0.68267 1.024,-0.28445 2.10489,-0.62578 3.24267,-1.024 1.13778,-0.39822 2.44622,-0.88178 3.92533,-1.45067 0.91023,-0.34133 1.64978,-0.62578 2.21867,-0.85333 0.62578,-0.28445 1.16622,-0.512 1.62133,-0.68267 0.45511,-0.22755 0.88178,-0.45511 1.28,-0.68266 0.39823,-0.22756 0.88178,-0.48356 1.45067,-0.768 0.91022,-0.512 1.45066,-0.85333 1.62133,-1.024 0.17067,-0.22756 0.39822,-0.48356 0.68267,-0.768 0.0569,-0.0569 0.1422,-0.0569 0.256,0 0,-0.22756 0.17067,-0.17067 0.512,0.17066 0.34133,0.34133 0.71111,0.79645 1.10933,1.36534 0.45511,0.512 0.88178,1.08089 1.28,1.70666 0.39823,0.56889 0.65423,1.02401 0.768,1.36534 z m -21.84533,22.528 -2.56,0.0853 c -3.29955,0.11378 -6.45689,0.39822 -9.472,0.85333 -2.95822,0.45511 -5.29066,1.024 -6.99733,1.70667 -0.79645,0.28445 -1.64978,0.68267 -2.56,1.19467 -0.91023,0.45511 -1.62134,0.88177 -2.13334,1.28 -3.41333,2.56 -5.12,5.54667 -5.12,8.96 0,1.19467 0.22756,2.27555 0.68267,3.24266 0.512,1.024 1.19467,1.84889 2.048,2.47467 0.85333,0.68267 1.82044,1.16622 2.90133,1.45067 1.13778,0.28444 2.304,0.28444 3.49867,0 1.30845,-0.34133 2.75911,-1.10933 4.352,-2.304 1.64978,-1.13778 3.24267,-2.61689 4.77867,-4.43734 0.79644,-0.91022 1.47911,-1.70666 2.048,-2.38933 0.62577,-0.73955 1.22311,-1.47911 1.792,-2.21867 0.62577,-0.79644 1.25155,-1.67822 1.87733,-2.64533 0.68267,-0.96711 1.50756,-2.19022 2.47467,-3.66933 z m 18.00533,-24.064 c 0.22756,-0.512 0.31289,-0.768 0.256,-0.768 0,-0.0569 -0.31289,0.25602 -0.93866,0.93866 -0.56889,0.62578 -1.10934,1.25156 -1.62134,1.87734 -0.34133,0.45511 -0.79644,1.05244 -1.36533,1.792 -0.512,0.73955 -1.05244,1.536 -1.62133,2.38933 -0.56889,0.79645 -1.13778,1.62134 -1.70667,2.47467 -0.56889,0.79644 -1.08089,1.53599 -1.536,2.21866 -0.45511,0.62578 -0.93867,1.36534 -1.45067,2.21867 -0.512,0.85333 -0.768,1.30844 -0.768,1.36533 0,0.0569 -0.0853,0.22753 -0.256,0.512 -0.11377,0.28445 -0.28444,0.62578 -0.512,1.024 -0.91022,1.64978 -1.67822,3.04356 -2.304,4.18134 -0.56889,1.08089 -0.82489,1.64977 -0.768,1.70666 0,0.0569 0.256,0.11376 0.768,0.17067 0.512,0 1.10933,0.0284 1.792,0.0853 0.68267,0.11378 1.28,0.19911 1.792,0.256 h 1.024 c 0.11378,0.0569 0.22756,0.0853 0.34134,0.0853 h 0.34133 0.42667 c 1.25155,-3.41333 2.56,-7.08267 3.92533,-11.008 1.36533,-3.92533 2.75911,-7.76533 4.18133,-11.52 z"
           style="font-family:'White Chick';-inkscape-font-specification:'White Chick';fill:#55d400;fill-opacity:1"
           id="path86164"
           sodipodi:nodetypes="ssccccccccccsccccccsccccccccscscccccccccscccccccccsccscsssccccscscscccsccscsccssccccccscccccccccccccccccccssccccccccsccscc" />
        <path
           d="m 272.30411,377.99344 c 0.512,0.79645 1.024,1.76356 1.536,2.90134 0.512,1.08089 0.88178,1.96266 1.10934,2.64533 0.96711,3.52711 0.96711,7.13956 0,10.83733 -0.91023,3.69778 -2.75912,7.33867 -5.54667,10.92267 -0.34133,0.39822 -0.79644,0.91022 -1.36533,1.536 -0.512,0.56889 -1.08089,1.19466 -1.70667,1.87733 -0.62578,0.62578 -1.25156,1.22311 -1.87733,1.792 -0.62578,0.56889 -1.13778,1.02401 -1.536,1.36534 -2.38933,1.93422 -4.80711,3.47022 -7.25334,4.608 -2.38933,1.19467 -4.89244,2.10489 -7.50933,2.73066 -0.62578,0.11378 -1.19467,0.17067 -1.70667,0.17067 -0.45511,0.0569 -1.16622,0.11376 -2.13333,0.17067 h -1.87733 c -0.56889,0 -0.93867,-0.0284 -1.10934,-0.0853 -0.512,-0.11377 -1.08089,-0.28444 -1.70666,-0.512 -0.56889,-0.17067 -1.02401,-0.36978 -1.36534,-0.59733 -0.62577,-0.45511 -1.13777,-0.96711 -1.536,-1.536 -0.34133,-0.512 -0.512,-1.024 -0.512,-1.536 0,-1.59289 1.67822,-3.21422 5.03467,-4.864 1.13778,-0.56889 2.21867,-1.024 3.24267,-1.36533 1.024,-0.34133 2.24711,-0.68267 3.66933,-1.024 l 0.256,-0.0853 c 0,-0.0569 -0.14222,-0.19909 -0.42667,-0.42666 -0.39822,-0.45511 -0.65422,-0.91023 -0.768,-1.36534 -0.11377,-0.45511 -0.11377,-1.08088 0,-1.87733 0,-0.17067 0.0569,-0.48356 0.17067,-0.93867 0.11378,-0.45511 0.22756,-0.93866 0.34133,-1.45066 0.17067,-0.56889 0.31289,-1.13778 0.42667,-1.70667 0.17067,-0.56889 0.31289,-1.08089 0.42667,-1.536 0.11377,-0.34133 0.22755,-0.768 0.34133,-1.28 0.17067,-0.512 0.31289,-0.93867 0.42667,-1.28 0.11377,-0.39822 0.28444,-1.024 0.512,-1.87733 0.28444,-0.91023 0.59733,-1.93423 0.93866,-3.072 0.39823,-1.19467 0.79645,-2.47467 1.19467,-3.84 0.45511,-1.36533 0.91022,-2.73067 1.36533,-4.096 0.45511,-1.47911 0.82489,-2.70223 1.10934,-3.66934 0.28444,-0.96711 0.48355,-1.76355 0.59733,-2.38933 0.22755,-1.024 0.39822,-1.56444 0.512,-1.62133 0.17067,-0.11378 0.62578,0.0569 1.36533,0.512 1.024,0.68267 1.67822,1.36533 1.96267,2.048 0.11378,0.28444 0.14221,0.71111 0.0853,1.28 0,0.512 -0.0853,1.10933 -0.256,1.792 -0.0569,0.28444 -0.22753,0.88177 -0.512,1.792 -0.28444,0.85333 -0.59733,1.792 -0.93866,2.816 -0.34133,1.024 -0.68267,2.07644 -1.024,3.15733 -0.34133,1.024 -0.62578,1.84889 -0.85334,2.47467 -0.28444,0.79644 -0.71111,2.04799 -1.28,3.75466 l -1.536,5.12 c -0.22755,0.62578 -0.48355,1.36534 -0.768,2.21867 -0.22755,0.79645 -0.39822,1.45067 -0.512,1.96267 l -0.512,1.536 c -0.11377,0.45511 -0.17066,0.76799 -0.17066,0.93866 l -0.0853,0.768 0.512,-0.0853 h 0.768 c 0.34133,-0.0569 0.68267,-0.11376 1.024,-0.17067 0.56889,-0.0569 0.96712,-0.0569 1.19467,0 0.22755,0 20.54044,0.0569 20.93867,0.17067 0.45511,0.17067 0.85333,0.34133 1.19466,0.512 0.34133,0.17067 0.512,0.31289 0.512,0.42667 0.11378,0.11377 -20.56889,0.17066 -22.048,0.17066 -2.16177,0 -4.32355,0.28445 -6.48533,0.85334 -2.10489,0.512 -4.15289,1.36533 -6.144,2.56 -1.93422,1.30844 -3.10044,2.38933 -3.49867,3.24266 -0.34133,0.85333 -0.22755,1.47911 0.34134,1.87734 0.62577,0.45511 1.59288,0.71111 2.90133,0.768 1.30845,0.0569 2.67378,-0.0569 4.096,-0.34134 2.16178,-0.39822 4.43734,-1.28 6.82667,-2.64533 2.44622,-1.30845 4.77866,-2.98667 6.99733,-5.03467 2.27555,-2.048 4.352,-4.38044 6.22933,-6.99733 1.87733,-2.61689 3.35645,-5.40444 4.43734,-8.36267 0.56889,-1.47911 1.024,-2.78755 1.36533,-3.92533 0.34133,-1.19467 0.54044,-2.50311 0.59733,-3.92533 0.11378,-2.16178 -0.22755,-4.12445 -1.024,-5.888 -0.79644,-1.82045 -2.16177,-3.29956 -4.096,-4.43734 -1.47911,-0.85333 -3.10044,-1.47911 -4.864,-1.87733 -1.70667,-0.45511 -3.64089,-0.62578 -5.80266,-0.512 -1.64978,0.0569 -3.072,0.22753 -4.26667,0.512 -1.13778,0.22755 -2.47467,0.65422 -4.01067,1.28 -0.85333,0.34133 -1.82044,0.82489 -2.90133,1.45067 -1.024,0.56889 -1.87733,1.10933 -2.56,1.62133 -0.28445,0.22755 -0.62578,0.54044 -1.024,0.93867 -0.39822,0.34133 -0.79644,0.71111 -1.19467,1.10933 -0.39822,0.39822 -0.768,0.79644 -1.10933,1.19467 -0.34133,0.39822 -0.59733,0.71111 -0.768,0.93866 -0.62578,1.024 -1.05245,1.99111 -1.28,2.90134 0,0.34133 -0.0569,0.512 -0.17067,0.512 -0.11377,0 -0.31288,-0.17067 -0.59733,-0.512 -0.22755,-0.34133 -0.48355,-0.71111 -0.768,-1.10934 -0.28445,-0.45511 -0.54045,-0.88177 -0.768,-1.28 -0.22755,-0.45511 -0.36978,-0.76799 -0.42667,-0.93866 -0.11377,-0.73956 0.14223,-1.64978 0.768,-2.73067 0.68267,-1.13778 1.56445,-2.19022 2.64534,-3.15733 0.34133,-0.34133 0.62578,-0.59733 0.85333,-0.768 0.22755,-0.17067 0.42666,-0.34133 0.59733,-0.512 0.22756,-0.17067 0.45512,-0.34133 0.68267,-0.512 0.28445,-0.17067 0.65422,-0.39822 1.10933,-0.68267 1.64978,-1.024 3.47023,-1.84889 5.46134,-2.47467 1.99111,-0.62577 4.03911,-1.08088 6.144,-1.36533 0.45511,-0.0569 1.05244,-0.0853 1.792,-0.0853 h 2.38933 c 0.79645,0 1.56445,0.0284 2.304,0.0853 0.73955,0.0569 1.28,0.11376 1.62133,0.17067 2.38933,0.45511 4.55111,1.30844 6.48534,2.56 1.93422,1.25155 3.52711,2.84444 4.77866,4.77866 z"
           style="font-family:'White Chick';-inkscape-font-specification:'White Chick';fill:#55d400;fill-opacity:1"
           id="path86172"
           sodipodi:nodetypes="cccccccscccccsccccscscccscscccccccccscccccccsccccccccccccccscsccccscccsccccccccccccssccsccccccscccscssscscc" />
        <text
           xml:space="preserve"
           style="font-size:32px;line-height:1.25;font-family:'Tatoo Sailor';-inkscape-font-specification:'Tatoo Sailor';fill:#55d400;fill-opacity:1"
           x="184.4509"
           y="400.99701"
           id="text101072"><tspan
             sodipodi:role="line"
             id="tspan101070"
             x="184.4509"
             y="400.99701"
             style="font-style:normal;font-variant:normal;font-weight:normal;font-stretch:normal;font-size:32px;font-family:'Bookman Old Style';-inkscape-font-specification:'Bookman Old Style';fill:#55d400;fill-opacity:1">rte</tspan></text>
        <text
           xml:space="preserve"
           style="font-size:32px;line-height:1.25;font-family:'Tatoo Sailor';-inkscape-font-specification:'Tatoo Sailor';fill:#55d400;fill-opacity:1"
           x="275.95059"
           y="400.99704"
           id="text121420"><tspan
             sodipodi:role="line"
             id="tspan121418"
             x="275.95059"
             y="400.99704"
             style="font-style:normal;font-variant:normal;font-weight:normal;font-stretch:normal;font-size:32px;font-family:'Bookman Old Style';-inkscape-font-specification:'Bookman Old Style';fill:#55d400;fill-opacity:1">iseño</tspan></text>
      </g>
    </g>
    <g
       id="g2335"
       transform="matrix(2.7160689,0,0,2.804336,-452.72661,-137.38544)"
       inkscape:export-filename="logoFilo.svg"
       inkscape:export-xdpi="96"
       inkscape:export-ydpi="96">
      <path
         style="fill:#000000;fill-opacity:1;stroke:#000000;stroke-width:0.40685px;stroke-linecap:butt;stroke-linejoin:miter;stroke-opacity:1"
         d="m 176.47127,63.55666 c 5.42859,-5.947163 18.13019,-4.86479 23.14914,0.05174 0,0 -1.87963,2.095111 -2.97861,3.361281 -1.24898,1.369619 -2.07877,2.464285 -2.76338,3.677213 -1.0694,1.894689 -0.77405,4.923677 -1.59232,6.300818 -0.81825,1.377143 -1.36537,2.282929 -1.36537,2.282929 l -1.44994,1.551884 0.05,1.551867 c 0,0 1.29382,-1.602982 2.00599,-2.433879 0.45377,-0.529416 0.98574,-0.981878 1.49995,-1.448418 0.55191,-0.500747 1.19176,-0.900342 1.69994,-1.448419 0.59303,-0.639591 0.48579,-1.46173 1.16104,-2.084318 1.26889,-1.169915 2.96363,-1.800264 4.59983,-2.276093 1.41927,-0.412751 5.14227,-0.575309 5.14227,-0.575309 -1.84679,2.962046 -4.70931,6.300163 -8.11281,6.839745 -0.79029,0.110896 -1.73206,-1.013159 -2.2444,-0.397733 0,0 -1.64603,1.321539 -2.01757,1.68673 -0.37154,0.365192 -2.00851,2.260383 -2.35206,3.682052 -0.34354,1.421667 -4.16071,1.275922 -5.07718,0.703305 -0.91647,-0.572616 0.10992,-0.7773 -1.72237,-2.986793 l -1.83229,-2.209494 c -1.12061,-1.177907 -1.44556,-0.566955 -2.19992,-0.724225 -0.72996,-0.152187 -1.03698,-0.03065 -1.72333,-0.125284 -4.09715,-0.673064 -5.86256,-3.374394 -7.87632,-6.592657 0,0 0.90311,-0.139649 2.04993,-0.05853 2.88437,0.13834 5.98356,1.26043 7.99969,2.948563 0.80897,0.713165 0.67779,1.387496 1.49996,2.431266 0.82216,1.043786 2.41665,1.761067 3.99983,4.448737 0.29599,0.502466 0.52644,-0.994768 -0.0999,-1.603609 l -1.99991,-3.310682 -0.40007,-2.224353 c 0,0 -0.47208,-2.451412 -0.79998,-3.310681 -0.3279,-0.859271 -0.32373,-0.898655 -0.99995,-1.862264 -0.67622,-0.963611 -3.29989,-3.672772 -3.29989,-3.672772 z"
         id="path4703"
         sodipodi:nodetypes="cccsscccsssssccszzsssscccczsccczzcc" />
      <path
         style="fill:#f6d6f2;fill-opacity:1;stroke-width:0.136689"
         d="m 193.49771,63.609291 c 0.0561,-1.410473 0.11837,-2.582343 0.13924,-2.604147 0.0868,-0.09181 2.38328,0.789933 3.17087,1.217635 1.01357,0.550376 1.79087,1.071206 1.79087,1.199948 0,0.05083 -0.42271,0.201627 -0.93934,0.33517 -1.17928,0.304749 -2.37521,0.945826 -3.30995,1.774236 -0.39816,0.352892 -0.77554,0.641656 -0.8386,0.641656 -0.063,0 -0.0686,-1.154039 -0.0121,-2.564498 z"
         id="path4113" />
      <path
         style="fill:#f6d6f2;fill-opacity:1;stroke-width:0.136689"
         d="m 181.83551,65.44908 c -0.95067,-0.784882 -2.73557,-1.665 -3.66351,-1.806489 -0.35168,-0.05365 -0.57376,-0.152187 -0.54185,-0.240621 0.1031,-0.285777 2.23128,-1.465233 3.38785,-1.877623 1.89026,-0.674096 1.7528,-0.84014 1.7528,2.1174 0,1.392611 -0.0136,2.529336 -0.036,2.526051 -0.0195,-0.0031 -0.4245,-0.326709 -0.89934,-0.718718 z"
         id="path4111" />
      <path
         style="fill:#f6d6f2;fill-opacity:1;stroke-width:0.136689"
         d="m 189.61152,65.893721 c -0.1477,-1.060537 -0.78879,-4.403362 -0.94008,-4.901653 -0.0739,-0.24328 -0.0964,-0.497634 -0.0499,-0.565297 0.15041,-0.219255 3.93387,0.211717 3.93387,0.448084 0,0.0721 -0.4434,0.987196 -0.98536,2.033376 -0.54194,1.046179 -1.13763,2.252726 -1.32376,2.68121 -0.46512,1.070814 -0.52394,1.098999 -0.63459,0.30428 z"
         id="path4109" />
      <path
         style="fill:#f6d6f2;fill-opacity:1;stroke-width:0.136689"
         d="m 186.27695,66.354646 c -0.43297,-1.087674 -1.07019,-2.440746 -1.78921,-3.799276 -0.46743,-0.883153 -0.8202,-1.649061 -0.78393,-1.702053 0.13243,-0.193119 3.74501,-0.60429 3.8511,-0.438307 0.0387,0.06084 -0.0747,0.753551 -0.25204,1.539636 -0.17739,0.786086 -0.4344,2.130022 -0.57106,2.986507 -0.13666,0.85647 -0.27286,1.580211 -0.30275,1.608286 -0.0299,0.028 -0.0984,-0.05959 -0.15211,-0.194793 z"
         id="path4107" />
      <path
         style="fill:#800080;fill-opacity:1;stroke-width:0.136689"
         d="m 185.53801,70.546042 c -0.25865,-0.594233 -0.79984,-1.599042 -1.20262,-2.232955 l -0.73232,-1.152524 -0.0738,-2.40865 c -0.0519,-1.687037 -0.0283,-2.369735 0.0782,-2.278768 0.2522,0.215674 1.68696,3.289959 2.16716,4.643577 0.40468,1.140666 0.4497,1.429885 0.4497,2.889112 0,0.891833 -0.0488,1.621297 -0.10779,1.621046 -0.0593,-2.49e-4 -0.31958,-0.486637 -0.57821,-1.080838 z"
         id="path4105" />
      <path
         style="fill:#800080;fill-opacity:1;stroke-width:0.136689"
         d="m 189.96525,70.053209 c 0,-1.596553 0.0311,-1.788265 0.49497,-3.038889 0.7298,-1.968184 2.15331,-4.757474 2.21818,-4.346428 0.0281,0.178557 0.0218,1.288739 -0.0121,2.467132 l -0.0655,2.142472 -0.66627,1.030882 c -0.61695,0.954586 -1.67949,3.062569 -1.67949,3.331969 0,0.06413 -0.0649,0.116995 -0.14377,0.116995 -0.0886,0 -0.14376,-0.654606 -0.14376,-1.704038 z"
         id="path4103" />
      <path
         style="fill:#f6d6f2;fill-opacity:1;stroke-width:0.136689"
         d="m 200.61304,74.755596 c 0,-0.06037 0.0989,-0.184031 0.22007,-0.274687 0.12094,-0.09056 0.45123,-0.502796 0.73379,-0.91589 0.28254,-0.41311 0.59241,-0.778326 0.68853,-0.811658 0.34546,-0.119498 2.33974,-0.373914 2.57566,-0.328399 0.19014,0.0366 0.0653,0.252385 -0.59014,1.020326 l -0.8313,0.973855 -1.19861,0.154063 c -0.65924,0.08462 -1.28849,0.185144 -1.39831,0.22315 -0.10975,0.03817 -0.19969,0.0197 -0.19969,-0.04083 z"
         id="path4101" />
      <path
         style="fill:#f6d6f2;fill-opacity:1;stroke-width:0.136689"
         d="m 175.13562,74.744648 c -0.20281,-0.0513 -0.80457,-0.135451 -1.33719,-0.186863 -0.95227,-0.09197 -0.9783,-0.104639 -1.55709,-0.764375 -0.81416,-0.927763 -1.03593,-1.249404 -0.92843,-1.346409 0.0906,-0.08196 2.22037,0.169612 2.62664,0.310302 0.11474,0.03957 0.30048,0.232628 0.41283,0.428719 0.11233,0.196076 0.43814,0.632975 0.72397,0.970884 0.28584,0.337907 0.49904,0.629362 0.47386,0.647709 -0.0252,0.01831 -0.21177,-0.0094 -0.41459,-0.05991 z"
         id="path4099" />
      <path
         style="fill:#c229c2;fill-opacity:1;stroke-width:0.136689"
         d="m 189.91239,75.376497 c 0.49587,-2.401894 1.59709,-5.170553 2.75301,-6.921438 0.84375,-1.278072 2.40147,-2.789712 3.47097,-3.368319 0.83414,-0.45129 1.78359,-0.781862 2.02996,-0.706786 0.0777,0.02347 -0.35368,0.539584 -0.95803,1.146642 -3.16324,3.17717 -4.57415,5.544873 -4.95207,8.310233 -0.0928,0.678444 -0.22549,1.28927 -0.29504,1.357387 -0.0697,0.06803 -0.43379,0.198202 -0.8094,0.289093 -0.37561,0.09088 -0.82839,0.202113 -1.00617,0.247173 -0.29995,0.07618 -0.31677,0.05021 -0.23323,-0.353985 z"
         id="path4097" />
      <path
         style="fill:#c229c2;fill-opacity:1;stroke-width:0.136689"
         d="m 185.28885,75.563907 c -1.1645,-0.316933 -1.13529,-0.281476 -1.3268,-1.611007 -0.41864,-2.906206 -1.77663,-5.202163 -4.984,-8.426304 -0.60387,-0.607058 -1.09826,-1.143482 -1.09871,-1.192032 -0.003,-0.281725 2.02011,0.545667 3.00331,1.228585 2.4133,1.676354 4.6935,5.751897 5.40977,9.669529 0.1152,0.630128 0.10597,0.633178 -1.00357,0.331229 z"
         id="path4095" />
      <path
         style="fill:#c229c2;fill-opacity:1;stroke-width:0.136689"
         d="m 196.53153,75.894886 c -0.28761,-0.221727 -0.52295,-0.471295 -0.52295,-0.554647 0,-0.202502 1.1918,-1.005229 2.08641,-1.405296 0.89582,-0.400612 2.60752,-0.915216 2.82581,-0.84954 0.42841,0.128882 -1.96144,2.202988 -3.44318,2.988323 -0.41859,0.221836 -0.42878,0.219911 -0.94609,-0.17884 z"
         id="path4093" />
      <path
         style="fill:#c229c2;fill-opacity:1;stroke-width:0.136689"
         d="m 178.29858,75.821841 c -0.42886,-0.258717 -1.06581,-0.679678 -1.41544,-0.935487 -0.78415,-0.573681 -1.82373,-1.73787 -1.60939,-1.802358 0.21396,-0.0646 1.93429,0.454761 2.82065,0.851137 0.88525,0.395887 2.08639,1.202024 2.08639,1.400306 0,0.134199 -0.57585,0.663131 -0.94772,0.870547 -0.0851,0.04739 -0.50563,-0.125285 -0.93449,-0.384145 z"
         id="path4091" />
      <path
         style="fill:#c229c2;fill-opacity:1;stroke-width:0.136689"
         d="m 187.45674,76.259664 c -0.31159,-0.281193 -0.34527,-0.450664 -0.44529,-2.239868 -0.0594,-1.064619 -0.0676,-2.92901 -0.016,-4.14308 0.11868,-2.901247 0.8155,-7.725901 1.11592,-7.725901 0.071,0 0.12895,0.01862 0.12895,0.04098 0,0.02236 0.15815,0.952208 0.35129,2.065753 0.54031,3.113965 0.70853,5.512152 0.61295,8.738296 -0.0464,1.572669 -0.12426,2.952502 -0.17264,3.066275 -0.094,0.220944 -0.66508,0.501685 -1.02069,0.501685 -0.11867,0 -0.36727,-0.136859 -0.55268,-0.304186 z"
         id="path4089" />
      <path
         style="fill:#c229c2;fill-opacity:1;stroke-width:0.136689"
         d="m 176.88734,77.71922 c -0.54374,-0.245204 -1.35499,-0.80207 -2.07339,-1.423238 -1.16638,-1.008467 -1.17484,-1.020418 -0.72764,-1.0255 0.92808,-0.01095 4.014,1.076851 4.47318,1.576095 0.11837,0.128882 0.11807,0.319577 -0.002,0.725133 -0.20229,0.683809 -0.43515,0.704408 -1.67011,0.147495 z"
         id="path4087" />
      <path
         style="fill:#c229c2;fill-opacity:1;stroke-width:0.136689"
         d="m 197.81572,78.090459 c -0.0302,-0.08962 -0.12547,-0.361745 -0.21163,-0.604415 -0.11671,-0.329478 -0.11278,-0.488469 0.0136,-0.627752 0.46344,-0.50389 3.52579,-1.592909 4.47944,-1.592909 h 0.44803 l -0.85882,0.7846 c -1.05067,0.95987 -2.06066,1.601479 -3.06057,1.944347 -0.57201,0.196138 -0.76971,0.219568 -0.81142,0.09619 z"
         id="path4085" />
      <path
         style="fill:#55ff55;stroke-width:0.136689"
         d="m 190.09802,78.492839 c -0.0905,-0.153282 -0.42267,-0.53059 -0.7375,-0.838764 l -0.57238,-0.560386 0.44713,-0.245375 c 0.58569,-0.321407 2.41781,-0.882169 2.53546,-0.776012 0.15011,0.135295 -0.36134,1.552212 -0.77462,2.146882 -0.42813,0.616084 -0.65419,0.68492 -0.89809,0.273655 z"
         id="path4083" />
      <path
         style="fill:#55ff55;stroke-width:0.136689"
         d="m 185.39331,78.440912 c -0.41799,-0.45764 -1.03973,-1.798043 -1.03973,-2.241605 0,-0.142022 0.12199,-0.163417 0.53352,-0.09385 0.45513,0.07695 2.28561,0.751268 2.45526,0.904378 0.031,0.028 -0.22418,0.367797 -0.56695,0.755256 -0.34278,0.387506 -0.69115,0.810579 -0.77417,0.940228 -0.13697,0.213874 -0.19322,0.189458 -0.60793,-0.264584 z"
         id="path4081" />
      <path
         style="fill:#55d400;fill-opacity:1;stroke-width:0.136689"
         d="m 189.88834,83.87866 c 0.32221,-1.957878 2.03142,-4.46796 3.88995,-5.712608 1.31821,-0.882793 1.31757,-0.882137 1.4177,-1.447229 0.0519,-0.291424 0.16361,-0.568864 0.24909,-0.616459 0.36146,-0.201566 1.55845,1.26606 1.56758,1.921997 0.003,0.265428 -0.43992,0.300666 -1.11451,0.08852 -0.58736,-0.184751 -1.1183,0.06711 -2.32033,1.100015 -1.5142,1.30141 -2.73346,3.195535 -3.0171,4.687138 -0.0791,0.41433 -0.16734,0.528228 -0.43728,0.563044 -0.32702,0.04207 -0.33498,0.0222 -0.2351,-0.584332 z"
         id="path4079" />
      <path
         style="fill:#55d400;stroke-width:0.136689"
         d="m 187.08748,82.122942 c 0,-2.194415 -0.0207,-2.381216 -0.29215,-2.641983 l -0.29214,-0.280646 0.48507,-0.636683 c 0.26675,-0.350154 0.65433,-0.723145 0.86125,-0.828847 0.35537,-0.181546 0.40096,-0.170768 0.82434,0.194777 0.24653,0.212811 0.58085,0.580343 0.74299,0.816678 l 0.29468,0.429753 -0.3048,0.292799 c -0.2874,0.27608 -0.30477,0.4275 -0.30477,2.654152 v 2.361336 h -1.00727 -1.0072 z"
         id="path4077" />
      <path
         style="fill:#55d400;fill-opacity:1;stroke-width:0.136689"
         d="m 185.73564,84.32197 c -0.0263,-0.08931 -0.12185,-0.454478 -0.21242,-0.811563 -0.30295,-1.194721 -1.28195,-2.739879 -2.43949,-3.850248 -0.59046,-0.566424 -1.35589,-1.179176 -1.70092,-1.361627 -0.54402,-0.287701 -0.68744,-0.312867 -1.08004,-0.18935 -0.6854,0.215627 -1.12977,0.182155 -1.12602,-0.08462 0.005,-0.397498 0.52023,-1.252592 0.99658,-1.655536 0.44762,-0.37862 0.46624,-0.382484 0.66566,-0.137641 0.11277,0.138737 0.20514,0.416771 0.20514,0.618071 0,0.390227 0.0373,0.426373 1.36695,1.316674 1.85382,1.24152 3.56781,3.754855 3.88811,5.701453 0.0942,0.572556 0.0794,0.616789 -0.20711,0.616789 -0.16982,0 -0.33012,-0.07305 -0.35644,-0.162258 z"
         id="path4009" />
    </g>
    <g
       id="g2335-4"
       transform="matrix(2.7160689,0,0,2.804336,-89.565945,-139.55779)">
      <path
         style="fill:#000000;fill-opacity:1;stroke:#000000;stroke-width:0.40685px;stroke-linecap:butt;stroke-linejoin:miter;stroke-opacity:1"
         d="m 176.47127,63.55666 c 5.42859,-5.947163 18.13019,-4.86479 23.14914,0.05174 0,0 -1.87963,2.095111 -2.97861,3.361281 -1.24898,1.369619 -2.07877,2.464285 -2.76338,3.677213 -1.0694,1.894689 -0.77405,4.923677 -1.59232,6.300818 -0.81825,1.377143 -1.36537,2.282929 -1.36537,2.282929 l -1.44994,1.551884 0.05,1.551867 c 0,0 1.29382,-1.602982 2.00599,-2.433879 0.45377,-0.529416 0.98574,-0.981878 1.49995,-1.448418 0.55191,-0.500747 1.19176,-0.900342 1.69994,-1.448419 0.59303,-0.639591 0.48579,-1.46173 1.16104,-2.084318 1.26889,-1.169915 2.96363,-1.800264 4.59983,-2.276093 1.41927,-0.412751 5.14227,-0.575309 5.14227,-0.575309 -1.84679,2.962046 -4.70931,6.300163 -8.11281,6.839745 -0.79029,0.110896 -1.73206,-1.013159 -2.2444,-0.397733 0,0 -1.64603,1.321539 -2.01757,1.68673 -0.37154,0.365192 -2.00851,2.260383 -2.35206,3.682052 -0.34354,1.421667 -4.16071,1.275922 -5.07718,0.703305 -0.91647,-0.572616 0.10992,-0.7773 -1.72237,-2.986793 l -1.83229,-2.209494 c -1.12061,-1.177907 -1.44556,-0.566955 -2.19992,-0.724225 -0.72996,-0.152187 -1.03698,-0.03065 -1.72333,-0.125284 -4.09715,-0.673064 -5.86256,-3.374394 -7.87632,-6.592657 0,0 0.90311,-0.139649 2.04993,-0.05853 2.88437,0.13834 5.98356,1.26043 7.99969,2.948563 0.80897,0.713165 0.67779,1.387496 1.49996,2.431266 0.82216,1.043786 2.41665,1.761067 3.99983,4.448737 0.29599,0.502466 0.52644,-0.994768 -0.0999,-1.603609 l -1.99991,-3.310682 -0.40007,-2.224353 c 0,0 -0.47208,-2.451412 -0.79998,-3.310681 -0.3279,-0.859271 -0.32373,-0.898655 -0.99995,-1.862264 -0.67622,-0.963611 -3.29989,-3.672772 -3.29989,-3.672772 z"
         id="path4703-8"
         sodipodi:nodetypes="cccsscccsssssccszzsssscccczsccczzcc" />
      <path
         style="fill:#f6d6f2;fill-opacity:1;stroke-width:0.136689"
         d="m 193.49771,63.609291 c 0.0561,-1.410473 0.11837,-2.582343 0.13924,-2.604147 0.0868,-0.09181 2.38328,0.789933 3.17087,1.217635 1.01357,0.550376 1.79087,1.071206 1.79087,1.199948 0,0.05083 -0.42271,0.201627 -0.93934,0.33517 -1.17928,0.304749 -2.37521,0.945826 -3.30995,1.774236 -0.39816,0.352892 -0.77554,0.641656 -0.8386,0.641656 -0.063,0 -0.0686,-1.154039 -0.0121,-2.564498 z"
         id="path4113-8" />
      <path
         style="fill:#f6d6f2;fill-opacity:1;stroke-width:0.136689"
         d="m 181.83551,65.44908 c -0.95067,-0.784882 -2.73557,-1.665 -3.66351,-1.806489 -0.35168,-0.05365 -0.57376,-0.152187 -0.54185,-0.240621 0.1031,-0.285777 2.23128,-1.465233 3.38785,-1.877623 1.89026,-0.674096 1.7528,-0.84014 1.7528,2.1174 0,1.392611 -0.0136,2.529336 -0.036,2.526051 -0.0195,-0.0031 -0.4245,-0.326709 -0.89934,-0.718718 z"
         id="path4111-2" />
      <path
         style="fill:#f6d6f2;fill-opacity:1;stroke-width:0.136689"
         d="m 189.61152,65.893721 c -0.1477,-1.060537 -0.78879,-4.403362 -0.94008,-4.901653 -0.0739,-0.24328 -0.0964,-0.497634 -0.0499,-0.565297 0.15041,-0.219255 3.93387,0.211717 3.93387,0.448084 0,0.0721 -0.4434,0.987196 -0.98536,2.033376 -0.54194,1.046179 -1.13763,2.252726 -1.32376,2.68121 -0.46512,1.070814 -0.52394,1.098999 -0.63459,0.30428 z"
         id="path4109-4" />
      <path
         style="fill:#f6d6f2;fill-opacity:1;stroke-width:0.136689"
         d="m 186.27695,66.354646 c -0.43297,-1.087674 -1.07019,-2.440746 -1.78921,-3.799276 -0.46743,-0.883153 -0.8202,-1.649061 -0.78393,-1.702053 0.13243,-0.193119 3.74501,-0.60429 3.8511,-0.438307 0.0387,0.06084 -0.0747,0.753551 -0.25204,1.539636 -0.17739,0.786086 -0.4344,2.130022 -0.57106,2.986507 -0.13666,0.85647 -0.27286,1.580211 -0.30275,1.608286 -0.0299,0.028 -0.0984,-0.05959 -0.15211,-0.194793 z"
         id="path4107-5" />
      <path
         style="fill:#800080;fill-opacity:1;stroke-width:0.136689"
         d="m 185.53801,70.546042 c -0.25865,-0.594233 -0.79984,-1.599042 -1.20262,-2.232955 l -0.73232,-1.152524 -0.0738,-2.40865 c -0.0519,-1.687037 -0.0283,-2.369735 0.0782,-2.278768 0.2522,0.215674 1.68696,3.289959 2.16716,4.643577 0.40468,1.140666 0.4497,1.429885 0.4497,2.889112 0,0.891833 -0.0488,1.621297 -0.10779,1.621046 -0.0593,-2.49e-4 -0.31958,-0.486637 -0.57821,-1.080838 z"
         id="path4105-5" />
      <path
         style="fill:#800080;fill-opacity:1;stroke-width:0.136689"
         d="m 189.96525,70.053209 c 0,-1.596553 0.0311,-1.788265 0.49497,-3.038889 0.7298,-1.968184 2.15331,-4.757474 2.21818,-4.346428 0.0281,0.178557 0.0218,1.288739 -0.0121,2.467132 l -0.0655,2.142472 -0.66627,1.030882 c -0.61695,0.954586 -1.67949,3.062569 -1.67949,3.331969 0,0.06413 -0.0649,0.116995 -0.14377,0.116995 -0.0886,0 -0.14376,-0.654606 -0.14376,-1.704038 z"
         id="path4103-1" />
      <path
         style="fill:#f6d6f2;fill-opacity:1;stroke-width:0.136689"
         d="m 200.61304,74.755596 c 0,-0.06037 0.0989,-0.184031 0.22007,-0.274687 0.12094,-0.09056 0.45123,-0.502796 0.73379,-0.91589 0.28254,-0.41311 0.59241,-0.778326 0.68853,-0.811658 0.34546,-0.119498 2.33974,-0.373914 2.57566,-0.328399 0.19014,0.0366 0.0653,0.252385 -0.59014,1.020326 l -0.8313,0.973855 -1.19861,0.154063 c -0.65924,0.08462 -1.28849,0.185144 -1.39831,0.22315 -0.10975,0.03817 -0.19969,0.0197 -0.19969,-0.04083 z"
         id="path4101-7" />
      <path
         style="fill:#f6d6f2;fill-opacity:1;stroke-width:0.136689"
         d="m 175.13562,74.744648 c -0.20281,-0.0513 -0.80457,-0.135451 -1.33719,-0.186863 -0.95227,-0.09197 -0.9783,-0.104639 -1.55709,-0.764375 -0.81416,-0.927763 -1.03593,-1.249404 -0.92843,-1.346409 0.0906,-0.08196 2.22037,0.169612 2.62664,0.310302 0.11474,0.03957 0.30048,0.232628 0.41283,0.428719 0.11233,0.196076 0.43814,0.632975 0.72397,0.970884 0.28584,0.337907 0.49904,0.629362 0.47386,0.647709 -0.0252,0.01831 -0.21177,-0.0094 -0.41459,-0.05991 z"
         id="path4099-1" />
      <path
         style="fill:#c229c2;fill-opacity:1;stroke-width:0.136689"
         d="m 189.91239,75.376497 c 0.49587,-2.401894 1.59709,-5.170553 2.75301,-6.921438 0.84375,-1.278072 2.40147,-2.789712 3.47097,-3.368319 0.83414,-0.45129 1.78359,-0.781862 2.02996,-0.706786 0.0777,0.02347 -0.35368,0.539584 -0.95803,1.146642 -3.16324,3.17717 -4.57415,5.544873 -4.95207,8.310233 -0.0928,0.678444 -0.22549,1.28927 -0.29504,1.357387 -0.0697,0.06803 -0.43379,0.198202 -0.8094,0.289093 -0.37561,0.09088 -0.82839,0.202113 -1.00617,0.247173 -0.29995,0.07618 -0.31677,0.05021 -0.23323,-0.353985 z"
         id="path4097-1" />
      <path
         style="fill:#c229c2;fill-opacity:1;stroke-width:0.136689"
         d="m 185.28885,75.563907 c -1.1645,-0.316933 -1.13529,-0.281476 -1.3268,-1.611007 -0.41864,-2.906206 -1.77663,-5.202163 -4.984,-8.426304 -0.60387,-0.607058 -1.09826,-1.143482 -1.09871,-1.192032 -0.003,-0.281725 2.02011,0.545667 3.00331,1.228585 2.4133,1.676354 4.6935,5.751897 5.40977,9.669529 0.1152,0.630128 0.10597,0.633178 -1.00357,0.331229 z"
         id="path4095-5" />
      <path
         style="fill:#c229c2;fill-opacity:1;stroke-width:0.136689"
         d="m 196.53153,75.894886 c -0.28761,-0.221727 -0.52295,-0.471295 -0.52295,-0.554647 0,-0.202502 1.1918,-1.005229 2.08641,-1.405296 0.89582,-0.400612 2.60752,-0.915216 2.82581,-0.84954 0.42841,0.128882 -1.96144,2.202988 -3.44318,2.988323 -0.41859,0.221836 -0.42878,0.219911 -0.94609,-0.17884 z"
         id="path4093-2" />
      <path
         style="fill:#c229c2;fill-opacity:1;stroke-width:0.136689"
         d="m 178.29858,75.821841 c -0.42886,-0.258717 -1.06581,-0.679678 -1.41544,-0.935487 -0.78415,-0.573681 -1.82373,-1.73787 -1.60939,-1.802358 0.21396,-0.0646 1.93429,0.454761 2.82065,0.851137 0.88525,0.395887 2.08639,1.202024 2.08639,1.400306 0,0.134199 -0.57585,0.663131 -0.94772,0.870547 -0.0851,0.04739 -0.50563,-0.125285 -0.93449,-0.384145 z"
         id="path4091-7" />
      <path
         style="fill:#c229c2;fill-opacity:1;stroke-width:0.136689"
         d="m 187.45674,76.259664 c -0.31159,-0.281193 -0.34527,-0.450664 -0.44529,-2.239868 -0.0594,-1.064619 -0.0676,-2.92901 -0.016,-4.14308 0.11868,-2.901247 0.8155,-7.725901 1.11592,-7.725901 0.071,0 0.12895,0.01862 0.12895,0.04098 0,0.02236 0.15815,0.952208 0.35129,2.065753 0.54031,3.113965 0.70853,5.512152 0.61295,8.738296 -0.0464,1.572669 -0.12426,2.952502 -0.17264,3.066275 -0.094,0.220944 -0.66508,0.501685 -1.02069,0.501685 -0.11867,0 -0.36727,-0.136859 -0.55268,-0.304186 z"
         id="path4089-6" />
      <path
         style="fill:#c229c2;fill-opacity:1;stroke-width:0.136689"
         d="m 176.88734,77.71922 c -0.54374,-0.245204 -1.35499,-0.80207 -2.07339,-1.423238 -1.16638,-1.008467 -1.17484,-1.020418 -0.72764,-1.0255 0.92808,-0.01095 4.014,1.076851 4.47318,1.576095 0.11837,0.128882 0.11807,0.319577 -0.002,0.725133 -0.20229,0.683809 -0.43515,0.704408 -1.67011,0.147495 z"
         id="path4087-1" />
      <path
         style="fill:#c229c2;fill-opacity:1;stroke-width:0.136689"
         d="m 197.81572,78.090459 c -0.0302,-0.08962 -0.12547,-0.361745 -0.21163,-0.604415 -0.11671,-0.329478 -0.11278,-0.488469 0.0136,-0.627752 0.46344,-0.50389 3.52579,-1.592909 4.47944,-1.592909 h 0.44803 l -0.85882,0.7846 c -1.05067,0.95987 -2.06066,1.601479 -3.06057,1.944347 -0.57201,0.196138 -0.76971,0.219568 -0.81142,0.09619 z"
         id="path4085-4" />
      <path
         style="fill:#55ff55;stroke-width:0.136689"
         d="m 190.09802,78.492839 c -0.0905,-0.153282 -0.42267,-0.53059 -0.7375,-0.838764 l -0.57238,-0.560386 0.44713,-0.245375 c 0.58569,-0.321407 2.41781,-0.882169 2.53546,-0.776012 0.15011,0.135295 -0.36134,1.552212 -0.77462,2.146882 -0.42813,0.616084 -0.65419,0.68492 -0.89809,0.273655 z"
         id="path4083-2" />
      <path
         style="fill:#55ff55;stroke-width:0.136689"
         d="m 185.39331,78.440912 c -0.41799,-0.45764 -1.03973,-1.798043 -1.03973,-2.241605 0,-0.142022 0.12199,-0.163417 0.53352,-0.09385 0.45513,0.07695 2.28561,0.751268 2.45526,0.904378 0.031,0.028 -0.22418,0.367797 -0.56695,0.755256 -0.34278,0.387506 -0.69115,0.810579 -0.77417,0.940228 -0.13697,0.213874 -0.19322,0.189458 -0.60793,-0.264584 z"
         id="path4081-3" />
      <path
         style="fill:#55d400;fill-opacity:1;stroke-width:0.136689"
         d="m 189.88834,83.87866 c 0.32221,-1.957878 2.03142,-4.46796 3.88995,-5.712608 1.31821,-0.882793 1.31757,-0.882137 1.4177,-1.447229 0.0519,-0.291424 0.16361,-0.568864 0.24909,-0.616459 0.36146,-0.201566 1.55845,1.26606 1.56758,1.921997 0.003,0.265428 -0.43992,0.300666 -1.11451,0.08852 -0.58736,-0.184751 -1.1183,0.06711 -2.32033,1.100015 -1.5142,1.30141 -2.73346,3.195535 -3.0171,4.687138 -0.0791,0.41433 -0.16734,0.528228 -0.43728,0.563044 -0.32702,0.04207 -0.33498,0.0222 -0.2351,-0.584332 z"
         id="path4079-2" />
      <path
         style="fill:#55d400;stroke-width:0.136689"
         d="m 187.08748,82.122942 c 0,-2.194415 -0.0207,-2.381216 -0.29215,-2.641983 l -0.29214,-0.280646 0.48507,-0.636683 c 0.26675,-0.350154 0.65433,-0.723145 0.86125,-0.828847 0.35537,-0.181546 0.40096,-0.170768 0.82434,0.194777 0.24653,0.212811 0.58085,0.580343 0.74299,0.816678 l 0.29468,0.429753 -0.3048,0.292799 c -0.2874,0.27608 -0.30477,0.4275 -0.30477,2.654152 v 2.361336 h -1.00727 -1.0072 z"
         id="path4077-2" />
      <path
         style="fill:#55d400;fill-opacity:1;stroke-width:0.136689"
         d="m 185.73564,84.32197 c -0.0263,-0.08931 -0.12185,-0.454478 -0.21242,-0.811563 -0.30295,-1.194721 -1.28195,-2.739879 -2.43949,-3.850248 -0.59046,-0.566424 -1.35589,-1.179176 -1.70092,-1.361627 -0.54402,-0.287701 -0.68744,-0.312867 -1.08004,-0.18935 -0.6854,0.215627 -1.12977,0.182155 -1.12602,-0.08462 0.005,-0.397498 0.52023,-1.252592 0.99658,-1.655536 0.44762,-0.37862 0.46624,-0.382484 0.66566,-0.137641 0.11277,0.138737 0.20514,0.416771 0.20514,0.618071 0,0.390227 0.0373,0.426373 1.36695,1.316674 1.85382,1.24152 3.56781,3.754855 3.88811,5.701453 0.0942,0.572556 0.0794,0.616789 -0.20711,0.616789 -0.16982,0 -0.33012,-0.07305 -0.35644,-0.162258 z"
         id="path4009-1" />
    </g>
  </g>
</svg>
