<?xml version="1.0" encoding="UTF-8" standalone="no"?>
<!-- Created with Inkscape (http://www.inkscape.org/) -->

<svg
   width="9.7429266cm"
   height="7.2639723cm"
   viewBox="0 0 97.429266 72.639722"
   version="1.1"
   id="svg5"
   xmlns="http://www.w3.org/2000/svg"
   xmlns:svg="http://www.w3.org/2000/svg">
  <defs
     id="defs2" />
  <g
     id="layer1"
     transform="translate(-29.481176,-167.00776)">
    <g
       id="g2335"
       transform="matrix(2.7160689,0,0,2.804336,-432.61809,0.72710066)">
      <path
         style="fill:#000000;fill-opacity:1;stroke:#000000;stroke-width:0.40685px;stroke-linecap:butt;stroke-linejoin:miter;stroke-opacity:1"
         d="m 176.47127,63.55666 c 5.42859,-5.947163 18.13019,-4.86479 23.14914,0.05174 0,0 -1.87963,2.095111 -2.97861,3.361281 -1.24898,1.369619 -2.07877,2.464285 -2.76338,3.677213 -1.0694,1.894689 -0.77405,4.923677 -1.59232,6.300818 -0.81825,1.377143 -1.36537,2.282929 -1.36537,2.282929 l -1.44994,1.551884 0.05,1.551867 c 0,0 1.29382,-1.602982 2.00599,-2.433879 0.45377,-0.529416 0.98574,-0.981878 1.49995,-1.448418 0.55191,-0.500747 1.19176,-0.900342 1.69994,-1.448419 0.59303,-0.639591 0.48579,-1.46173 1.16104,-2.084318 1.26889,-1.169915 2.96363,-1.800264 4.59983,-2.276093 1.41927,-0.412751 5.14227,-0.575309 5.14227,-0.575309 -1.84679,2.962046 -4.70931,6.300163 -8.11281,6.839745 -0.79029,0.110896 -1.73206,-1.013159 -2.2444,-0.397733 0,0 -1.64603,1.321539 -2.01757,1.68673 -0.37154,0.365192 -2.00851,2.260383 -2.35206,3.682052 -0.34354,1.421667 -4.16071,1.275922 -5.07718,0.703305 -0.91647,-0.572616 0.10992,-0.7773 -1.72237,-2.986793 l -1.83229,-2.209494 c -1.12061,-1.177907 -1.44556,-0.566955 -2.19992,-0.724225 -0.72996,-0.152187 -1.03698,-0.03065 -1.72333,-0.125284 -4.09715,-0.673064 -5.86256,-3.374394 -7.87632,-6.592657 0,0 0.90311,-0.139649 2.04993,-0.05853 2.88437,0.13834 5.98356,1.26043 7.99969,2.948563 0.80897,0.713165 0.67779,1.387496 1.49996,2.431266 0.82216,1.043786 2.41665,1.761067 3.99983,4.448737 0.29599,0.502466 0.52644,-0.994768 -0.0999,-1.603609 l -1.99991,-3.310682 -0.40007,-2.224353 c 0,0 -0.47208,-2.451412 -0.79998,-3.310681 -0.3279,-0.859271 -0.32373,-0.898655 -0.99995,-1.862264 -0.67622,-0.963611 -3.29989,-3.672772 -3.29989,-3.672772 z"
         id="path4703" />
      <path
         style="fill:#f6d6f2;fill-opacity:1;stroke-width:0.136689"
         d="m 193.49771,63.609291 c 0.0561,-1.410473 0.11837,-2.582343 0.13924,-2.604147 0.0868,-0.09181 2.38328,0.789933 3.17087,1.217635 1.01357,0.550376 1.79087,1.071206 1.79087,1.199948 0,0.05083 -0.42271,0.201627 -0.93934,0.33517 -1.17928,0.304749 -2.37521,0.945826 -3.30995,1.774236 -0.39816,0.352892 -0.77554,0.641656 -0.8386,0.641656 -0.063,0 -0.0686,-1.154039 -0.0121,-2.564498 z"
         id="path4113" />
      <path
         style="fill:#f6d6f2;fill-opacity:1;stroke-width:0.136689"
         d="m 181.83551,65.44908 c -0.95067,-0.784882 -2.73557,-1.665 -3.66351,-1.806489 -0.35168,-0.05365 -0.57376,-0.152187 -0.54185,-0.240621 0.1031,-0.285777 2.23128,-1.465233 3.38785,-1.877623 1.89026,-0.674096 1.7528,-0.84014 1.7528,2.1174 0,1.392611 -0.0136,2.529336 -0.036,2.526051 -0.0195,-0.0031 -0.4245,-0.326709 -0.89934,-0.718718 z"
         id="path4111" />
      <path
         style="fill:#f6d6f2;fill-opacity:1;stroke-width:0.136689"
         d="m 189.61152,65.893721 c -0.1477,-1.060537 -0.78879,-4.403362 -0.94008,-4.901653 -0.0739,-0.24328 -0.0964,-0.497634 -0.0499,-0.565297 0.15041,-0.219255 3.93387,0.211717 3.93387,0.448084 0,0.0721 -0.4434,0.987196 -0.98536,2.033376 -0.54194,1.046179 -1.13763,2.252726 -1.32376,2.68121 -0.46512,1.070814 -0.52394,1.098999 -0.63459,0.30428 z"
         id="path4109" />
      <path
         style="fill:#f6d6f2;fill-opacity:1;stroke-width:0.136689"
         d="m 186.27695,66.354646 c -0.43297,-1.087674 -1.07019,-2.440746 -1.78921,-3.799276 -0.46743,-0.883153 -0.8202,-1.649061 -0.78393,-1.702053 0.13243,-0.193119 3.74501,-0.60429 3.8511,-0.438307 0.0387,0.06084 -0.0747,0.753551 -0.25204,1.539636 -0.17739,0.786086 -0.4344,2.130022 -0.57106,2.986507 -0.13666,0.85647 -0.27286,1.580211 -0.30275,1.608286 -0.0299,0.028 -0.0984,-0.05959 -0.15211,-0.194793 z"
         id="path4107" />
      <path
         style="fill:#800080;fill-opacity:1;stroke-width:0.136689"
         d="m 185.53801,70.546042 c -0.25865,-0.594233 -0.79984,-1.599042 -1.20262,-2.232955 l -0.73232,-1.152524 -0.0738,-2.40865 c -0.0519,-1.687037 -0.0283,-2.369735 0.0782,-2.278768 0.2522,0.215674 1.68696,3.289959 2.16716,4.643577 0.40468,1.140666 0.4497,1.429885 0.4497,2.889112 0,0.891833 -0.0488,1.621297 -0.10779,1.621046 -0.0593,-2.49e-4 -0.31958,-0.486637 -0.57821,-1.080838 z"
         id="path4105" />
      <path
         style="fill:#800080;fill-opacity:1;stroke-width:0.136689"
         d="m 189.96525,70.053209 c 0,-1.596553 0.0311,-1.788265 0.49497,-3.038889 0.7298,-1.968184 2.15331,-4.757474 2.21818,-4.346428 0.0281,0.178557 0.0218,1.288739 -0.0121,2.467132 l -0.0655,2.142472 -0.66627,1.030882 c -0.61695,0.954586 -1.67949,3.062569 -1.67949,3.331969 0,0.06413 -0.0649,0.116995 -0.14377,0.116995 -0.0886,0 -0.14376,-0.654606 -0.14376,-1.704038 z"
         id="path4103" />
      <path
         style="fill:#f6d6f2;fill-opacity:1;stroke-width:0.136689"
         d="m 200.61304,74.755596 c 0,-0.06037 0.0989,-0.184031 0.22007,-0.274687 0.12094,-0.09056 0.45123,-0.502796 0.73379,-0.91589 0.28254,-0.41311 0.59241,-0.778326 0.68853,-0.811658 0.34546,-0.119498 2.33974,-0.373914 2.57566,-0.328399 0.19014,0.0366 0.0653,0.252385 -0.59014,1.020326 l -0.8313,0.973855 -1.19861,0.154063 c -0.65924,0.08462 -1.28849,0.185144 -1.39831,0.22315 -0.10975,0.03817 -0.19969,0.0197 -0.19969,-0.04083 z"
         id="path4101" />
      <path
         style="fill:#f6d6f2;fill-opacity:1;stroke-width:0.136689"
         d="m 175.13562,74.744648 c -0.20281,-0.0513 -0.80457,-0.135451 -1.33719,-0.186863 -0.95227,-0.09197 -0.9783,-0.104639 -1.55709,-0.764375 -0.81416,-0.927763 -1.03593,-1.249404 -0.92843,-1.346409 0.0906,-0.08196 2.22037,0.169612 2.62664,0.310302 0.11474,0.03957 0.30048,0.232628 0.41283,0.428719 0.11233,0.196076 0.43814,0.632975 0.72397,0.970884 0.28584,0.337907 0.49904,0.629362 0.47386,0.647709 -0.0252,0.01831 -0.21177,-0.0094 -0.41459,-0.05991 z"
         id="path4099" />
      <path
         style="fill:#c229c2;fill-opacity:1;stroke-width:0.136689"
         d="m 189.91239,75.376497 c 0.49587,-2.401894 1.59709,-5.170553 2.75301,-6.921438 0.84375,-1.278072 2.40147,-2.789712 3.47097,-3.368319 0.83414,-0.45129 1.78359,-0.781862 2.02996,-0.706786 0.0777,0.02347 -0.35368,0.539584 -0.95803,1.146642 -3.16324,3.17717 -4.57415,5.544873 -4.95207,8.310233 -0.0928,0.678444 -0.22549,1.28927 -0.29504,1.357387 -0.0697,0.06803 -0.43379,0.198202 -0.8094,0.289093 -0.37561,0.09088 -0.82839,0.202113 -1.00617,0.247173 -0.29995,0.07618 -0.31677,0.05021 -0.23323,-0.353985 z"
         id="path4097" />
      <path
         style="fill:#c229c2;fill-opacity:1;stroke-width:0.136689"
         d="m 185.28885,75.563907 c -1.1645,-0.316933 -1.13529,-0.281476 -1.3268,-1.611007 -0.41864,-2.906206 -1.77663,-5.202163 -4.984,-8.426304 -0.60387,-0.607058 -1.09826,-1.143482 -1.09871,-1.192032 -0.003,-0.281725 2.02011,0.545667 3.00331,1.228585 2.4133,1.676354 4.6935,5.751897 5.40977,9.669529 0.1152,0.630128 0.10597,0.633178 -1.00357,0.331229 z"
         id="path4095" />
      <path
         style="fill:#c229c2;fill-opacity:1;stroke-width:0.136689"
         d="m 196.53153,75.894886 c -0.28761,-0.221727 -0.52295,-0.471295 -0.52295,-0.554647 0,-0.202502 1.1918,-1.005229 2.08641,-1.405296 0.89582,-0.400612 2.60752,-0.915216 2.82581,-0.84954 0.42841,0.128882 -1.96144,2.202988 -3.44318,2.988323 -0.41859,0.221836 -0.42878,0.219911 -0.94609,-0.17884 z"
         id="path4093" />
      <path
         style="fill:#c229c2;fill-opacity:1;stroke-width:0.136689"
         d="m 178.29858,75.821841 c -0.42886,-0.258717 -1.06581,-0.679678 -1.41544,-0.935487 -0.78415,-0.573681 -1.82373,-1.73787 -1.60939,-1.802358 0.21396,-0.0646 1.93429,0.454761 2.82065,0.851137 0.88525,0.395887 2.08639,1.202024 2.08639,1.400306 0,0.134199 -0.57585,0.663131 -0.94772,0.870547 -0.0851,0.04739 -0.50563,-0.125285 -0.93449,-0.384145 z"
         id="path4091" />
      <path
         style="fill:#c229c2;fill-opacity:1;stroke-width:0.136689"
         d="m 187.45674,76.259664 c -0.31159,-0.281193 -0.34527,-0.450664 -0.44529,-2.239868 -0.0594,-1.064619 -0.0676,-2.92901 -0.016,-4.14308 0.11868,-2.901247 0.8155,-7.725901 1.11592,-7.725901 0.071,0 0.12895,0.01862 0.12895,0.04098 0,0.02236 0.15815,0.952208 0.35129,2.065753 0.54031,3.113965 0.70853,5.512152 0.61295,8.738296 -0.0464,1.572669 -0.12426,2.952502 -0.17264,3.066275 -0.094,0.220944 -0.66508,0.501685 -1.02069,0.501685 -0.11867,0 -0.36727,-0.136859 -0.55268,-0.304186 z"
         id="path4089" />
      <path
         style="fill:#c229c2;fill-opacity:1;stroke-width:0.136689"
         d="m 176.88734,77.71922 c -0.54374,-0.245204 -1.35499,-0.80207 -2.07339,-1.423238 -1.16638,-1.008467 -1.17484,-1.020418 -0.72764,-1.0255 0.92808,-0.01095 4.014,1.076851 4.47318,1.576095 0.11837,0.128882 0.11807,0.319577 -0.002,0.725133 -0.20229,0.683809 -0.43515,0.704408 -1.67011,0.147495 z"
         id="path4087" />
      <path
         style="fill:#c229c2;fill-opacity:1;stroke-width:0.136689"
         d="m 197.81572,78.090459 c -0.0302,-0.08962 -0.12547,-0.361745 -0.21163,-0.604415 -0.11671,-0.329478 -0.11278,-0.488469 0.0136,-0.627752 0.46344,-0.50389 3.52579,-1.592909 4.47944,-1.592909 h 0.44803 l -0.85882,0.7846 c -1.05067,0.95987 -2.06066,1.601479 -3.06057,1.944347 -0.57201,0.196138 -0.76971,0.219568 -0.81142,0.09619 z"
         id="path4085" />
      <path
         style="fill:#55ff55;stroke-width:0.136689"
         d="m 190.09802,78.492839 c -0.0905,-0.153282 -0.42267,-0.53059 -0.7375,-0.838764 l -0.57238,-0.560386 0.44713,-0.245375 c 0.58569,-0.321407 2.41781,-0.882169 2.53546,-0.776012 0.15011,0.135295 -0.36134,1.552212 -0.77462,2.146882 -0.42813,0.616084 -0.65419,0.68492 -0.89809,0.273655 z"
         id="path4083" />
      <path
         style="fill:#55ff55;stroke-width:0.136689"
         d="m 185.39331,78.440912 c -0.41799,-0.45764 -1.03973,-1.798043 -1.03973,-2.241605 0,-0.142022 0.12199,-0.163417 0.53352,-0.09385 0.45513,0.07695 2.28561,0.751268 2.45526,0.904378 0.031,0.028 -0.22418,0.367797 -0.56695,0.755256 -0.34278,0.387506 -0.69115,0.810579 -0.77417,0.940228 -0.13697,0.213874 -0.19322,0.189458 -0.60793,-0.264584 z"
         id="path4081" />
      <path
         style="fill:#55d400;fill-opacity:1;stroke-width:0.136689"
         d="m 189.88834,83.87866 c 0.32221,-1.957878 2.03142,-4.46796 3.88995,-5.712608 1.31821,-0.882793 1.31757,-0.882137 1.4177,-1.447229 0.0519,-0.291424 0.16361,-0.568864 0.24909,-0.616459 0.36146,-0.201566 1.55845,1.26606 1.56758,1.921997 0.003,0.265428 -0.43992,0.300666 -1.11451,0.08852 -0.58736,-0.184751 -1.1183,0.06711 -2.32033,1.100015 -1.5142,1.30141 -2.73346,3.195535 -3.0171,4.687138 -0.0791,0.41433 -0.16734,0.528228 -0.43728,0.563044 -0.32702,0.04207 -0.33498,0.0222 -0.2351,-0.584332 z"
         id="path4079" />
      <path
         style="fill:#55d400;stroke-width:0.136689"
         d="m 187.08748,82.122942 c 0,-2.194415 -0.0207,-2.381216 -0.29215,-2.641983 l -0.29214,-0.280646 0.48507,-0.636683 c 0.26675,-0.350154 0.65433,-0.723145 0.86125,-0.828847 0.35537,-0.181546 0.40096,-0.170768 0.82434,0.194777 0.24653,0.212811 0.58085,0.580343 0.74299,0.816678 l 0.29468,0.429753 -0.3048,0.292799 c -0.2874,0.27608 -0.30477,0.4275 -0.30477,2.654152 v 2.361336 h -1.00727 -1.0072 z"
         id="path4077" />
      <path
         style="fill:#55d400;fill-opacity:1;stroke-width:0.136689"
         d="m 185.73564,84.32197 c -0.0263,-0.08931 -0.12185,-0.454478 -0.21242,-0.811563 -0.30295,-1.194721 -1.28195,-2.739879 -2.43949,-3.850248 -0.59046,-0.566424 -1.35589,-1.179176 -1.70092,-1.361627 -0.54402,-0.287701 -0.68744,-0.312867 -1.08004,-0.18935 -0.6854,0.215627 -1.12977,0.182155 -1.12602,-0.08462 0.005,-0.397498 0.52023,-1.252592 0.99658,-1.655536 0.44762,-0.37862 0.46624,-0.382484 0.66566,-0.137641 0.11277,0.138737 0.20514,0.416771 0.20514,0.618071 0,0.390227 0.0373,0.426373 1.36695,1.316674 1.85382,1.24152 3.56781,3.754855 3.88811,5.701453 0.0942,0.572556 0.0794,0.616789 -0.20711,0.616789 -0.16982,0 -0.33012,-0.07305 -0.35644,-0.162258 z"
         id="path4009" />
    </g>
  </g>
</svg>
